<svg height="1918" width="720" xmlns="http://www.w3.org/2000/svg">
<rect height="1918" fill="#555" width="720"></rect>
<text fill="#7f7" font-family="Courier New" font-size="12" xml:space="preserve">
<tspan x="10" y="26">10 megabytes installed</tspan>
<tspan x="10" y="42"></tspan>
<tspan x="10" y="58">node_modules</tspan>
<tspan x="10" y="74">└─┬ get-css@1.2.3 </tspan>
<tspan x="10" y="90">  ├─┬ cheerio@0.22.0 </tspan>
<tspan x="10" y="106">  │ ├─┬ css-select@1.2.0 </tspan>
<tspan x="10" y="122">  │ │ ├── boolbase@1.0.0 </tspan>
<tspan x="10" y="138">  │ │ ├── css-what@2.1.0 </tspan>
<tspan x="10" y="154">  │ │ ├── domutils@1.5.1 </tspan>
<tspan x="10" y="170">  │ │ └── nth-check@1.0.1 </tspan>
<tspan x="10" y="186">  │ ├─┬ dom-serializer@0.1.0 </tspan>
<tspan x="10" y="202">  │ │ └── domelementtype@1.1.3 </tspan>
<tspan x="10" y="218">  │ ├── entities@1.1.1 </tspan>
<tspan x="10" y="234">  │ ├─┬ htmlparser2@3.9.2 </tspan>
<tspan x="10" y="250">  │ │ ├── domelementtype@1.3.0 </tspan>
<tspan x="10" y="266">  │ │ ├── domhandler@2.3.0 </tspan>
<tspan x="10" y="282">  │ │ ├── inherits@2.0.3 </tspan>
<tspan x="10" y="298">  │ │ └─┬ readable-stream@2.2.9 </tspan>
<tspan x="10" y="314">  │ │   ├── buffer-shims@1.0.0 </tspan>
<tspan x="10" y="330">  │ │   ├── core-util-is@1.0.2 </tspan>
<tspan x="10" y="346">  │ │   ├── isarray@1.0.0 </tspan>
<tspan x="10" y="362">  │ │   ├── process-nextick-args@1.0.7 </tspan>
<tspan x="10" y="378">  │ │   ├── string_decoder@1.0.0 </tspan>
<tspan x="10" y="394">  │ │   └── util-deprecate@1.0.2 </tspan>
<tspan x="10" y="410">  │ ├── lodash.assignin@4.2.0 </tspan>
<tspan x="10" y="426">  │ ├── lodash.bind@4.2.1 </tspan>
<tspan x="10" y="442">  │ ├── lodash.defaults@4.2.0 </tspan>
<tspan x="10" y="458">  │ ├── lodash.filter@4.6.0 </tspan>
<tspan x="10" y="474">  │ ├── lodash.flatten@4.4.0 </tspan>
<tspan x="10" y="490">  │ ├── lodash.foreach@4.5.0 </tspan>
<tspan x="10" y="506">  │ ├── lodash.map@4.6.0 </tspan>
<tspan x="10" y="522">  │ ├── lodash.merge@4.6.0 </tspan>
<tspan x="10" y="538">  │ ├── lodash.pick@4.4.0 </tspan>
<tspan x="10" y="554">  │ ├── lodash.reduce@4.6.0 </tspan>
<tspan x="10" y="570">  │ ├── lodash.reject@4.6.0 </tspan>
<tspan x="10" y="586">  │ └── lodash.some@4.6.0 </tspan>
<tspan x="10" y="602">  ├─┬ commander@2.9.0 </tspan>
<tspan x="10" y="618">  │ └── graceful-readlink@1.0.1 </tspan>
<tspan x="10" y="634">  ├─┬ is-blank@1.1.0 </tspan>
<tspan x="10" y="650">  │ ├── is-empty@0.0.1 </tspan>
<tspan x="10" y="666">  │ └── is-whitespace@0.3.0 </tspan>
<tspan x="10" y="682">  ├── is-css@2.0.0 </tspan>
<tspan x="10" y="698">  ├─┬ is-url-superb@2.0.0 </tspan>
<tspan x="10" y="714">  │ └─┬ url-regex@3.2.0 </tspan>
<tspan x="10" y="730">  │   └── ip-regex@1.0.3 </tspan>
<tspan x="10" y="746">  ├─┬ normalize-url@1.9.1 </tspan>
<tspan x="10" y="762">  │ ├── object-assign@4.1.1 </tspan>
<tspan x="10" y="778">  │ ├── prepend-http@1.0.4 </tspan>
<tspan x="10" y="794">  │ ├─┬ query-string@4.3.4 </tspan>
<tspan x="10" y="810">  │ │ └── strict-uri-encode@1.1.0 </tspan>
<tspan x="10" y="826">  │ └─┬ sort-keys@1.1.2 </tspan>
<tspan x="10" y="842">  │   └── is-plain-obj@1.1.0 </tspan>
<tspan x="10" y="858">  ├── q@1.5.0 </tspan>
<tspan x="10" y="874">  ├─┬ request@2.81.0 </tspan>
<tspan x="10" y="890">  │ ├── aws-sign2@0.6.0 </tspan>
<tspan x="10" y="906">  │ ├── aws4@1.6.0 </tspan>
<tspan x="10" y="922">  │ ├── caseless@0.12.0 </tspan>
<tspan x="10" y="938">  │ ├─┬ combined-stream@1.0.5 </tspan>
<tspan x="10" y="954">  │ │ └── delayed-stream@1.0.0 </tspan>
<tspan x="10" y="970">  │ ├── extend@3.0.0 </tspan>
<tspan x="10" y="986">  │ ├── forever-agent@0.6.1 </tspan>
<tspan x="10" y="1002">  │ ├─┬ form-data@2.1.4 </tspan>
<tspan x="10" y="1018">  │ │ └── asynckit@0.4.0 </tspan>
<tspan x="10" y="1034">  │ ├─┬ har-validator@4.2.1 </tspan>
<tspan x="10" y="1050">  │ │ ├─┬ ajv@4.11.7 </tspan>
<tspan x="10" y="1066">  │ │ │ ├── co@4.6.0 </tspan>
<tspan x="10" y="1082">  │ │ │ └─┬ json-stable-stringify@1.0.1 </tspan>
<tspan x="10" y="1098">  │ │ │   └── jsonify@0.0.0 </tspan>
<tspan x="10" y="1114">  │ │ └── har-schema@1.0.5 </tspan>
<tspan x="10" y="1130">  │ ├─┬ hawk@3.1.3 </tspan>
<tspan x="10" y="1146">  │ │ ├── boom@2.10.1 </tspan>
<tspan x="10" y="1162">  │ │ ├── cryptiles@2.0.5 </tspan>
<tspan x="10" y="1178">  │ │ ├── hoek@2.16.3 </tspan>
<tspan x="10" y="1194">  │ │ └── sntp@1.0.9 </tspan>
<tspan x="10" y="1210">  │ ├─┬ http-signature@1.1.1 </tspan>
<tspan x="10" y="1226">  │ │ ├── assert-plus@0.2.0 </tspan>
<tspan x="10" y="1242">  │ │ ├─┬ jsprim@1.4.0 </tspan>
<tspan x="10" y="1258">  │ │ │ ├── assert-plus@1.0.0 </tspan>
<tspan x="10" y="1274">  │ │ │ ├── extsprintf@1.0.2 </tspan>
<tspan x="10" y="1290">  │ │ │ ├── json-schema@0.2.3 </tspan>
<tspan x="10" y="1306">  │ │ │ └── verror@1.3.6 </tspan>
<tspan x="10" y="1322">  │ │ └─┬ sshpk@1.13.0 </tspan>
<tspan x="10" y="1338">  │ │   ├── asn1@0.2.3 </tspan>
<tspan x="10" y="1354">  │ │   ├── assert-plus@1.0.0 </tspan>
<tspan x="10" y="1370">  │ │   ├── bcrypt-pbkdf@1.0.1 </tspan>
<tspan x="10" y="1386">  │ │   ├─┬ dashdash@1.14.1 </tspan>
<tspan x="10" y="1402">  │ │   │ └── assert-plus@1.0.0 </tspan>
<tspan x="10" y="1418">  │ │   ├── ecc-jsbn@0.1.1 </tspan>
<tspan x="10" y="1434">  │ │   ├─┬ getpass@0.1.6 </tspan>
<tspan x="10" y="1450">  │ │   │ └── assert-plus@1.0.0 </tspan>
<tspan x="10" y="1466">  │ │   ├── jodid25519@1.0.2 </tspan>
<tspan x="10" y="1482">  │ │   ├── jsbn@0.1.1 </tspan>
<tspan x="10" y="1498">  │ │   └── tweetnacl@0.14.5 </tspan>
<tspan x="10" y="1514">  │ ├── is-typedarray@1.0.0 </tspan>
<tspan x="10" y="1530">  │ ├── isstream@0.1.2 </tspan>
<tspan x="10" y="1546">  │ ├── json-stringify-safe@5.0.1 </tspan>
<tspan x="10" y="1562">  │ ├─┬ mime-types@2.1.15 </tspan>
<tspan x="10" y="1578">  │ │ └── mime-db@1.27.0 </tspan>
<tspan x="10" y="1594">  │ ├── oauth-sign@0.8.2 </tspan>
<tspan x="10" y="1610">  │ ├── performance-now@0.2.0 </tspan>
<tspan x="10" y="1626">  │ ├── qs@6.4.0 </tspan>
<tspan x="10" y="1642">  │ ├── safe-buffer@5.0.1 </tspan>
<tspan x="10" y="1658">  │ ├── stringstream@0.0.5 </tspan>
<tspan x="10" y="1674">  │ ├─┬ tough-cookie@2.3.2 </tspan>
<tspan x="10" y="1690">  │ │ └── punycode@1.4.1 </tspan>
<tspan x="10" y="1706">  │ ├── tunnel-agent@0.6.0 </tspan>
<tspan x="10" y="1722">  │ └── uuid@3.0.1 </tspan>
<tspan x="10" y="1738">  ├─┬ resolve-css-import-urls@1.0.0 </tspan>
<tspan x="10" y="1754">  │ ├─┬ get-css-urls@1.0.1 </tspan>
<tspan x="10" y="1770">  │ │ └── css-url-regex@1.0.0 </tspan>
<tspan x="10" y="1786">  │ ├─┬ get-imports@1.0.0 </tspan>
<tspan x="10" y="1802">  │ │ ├── array-uniq@1.0.3 </tspan>
<tspan x="10" y="1818">  │ │ └── import-regex@1.1.0 </tspan>
<tspan x="10" y="1834">  │ ├─┬ is-present@1.0.0 </tspan>
<tspan x="10" y="1850">  │ │ └── is-blank@1.0.0 </tspan>
<tspan x="10" y="1866">  │ └── is-url@1.2.2 </tspan>
<tspan x="10" y="1882">  ├── strip-html-comments@1.0.0 </tspan>
<tspan x="10" y="1898">  └── ua-string@1.1.0</tspan>
</text>
</svg>
